<?xml version="1.0" encoding="utf-8"?>
<svg version="1.1" id="Layer_1" xmlns="http://www.w3.org/2000/svg" xmlns:xlink="http://www.w3.org/1999/xlink" x="0px" y="0px"
	 viewBox="-236 237.9 93.3 93" style="enable-background:new -236 237.9 93.3 93;" xml:space="preserve">
<style type="text/css">
	.st0{fill:#F28C40;}
	.st1{stroke:#000000;stroke-width:0.75;stroke-miterlimit:10;}
	.st2{font-family:'AmericanTypewriter';}
	.st3{font-size:48px;}
</style>
<polygon class="st0" points="-168.7,260.7 -168.7,245.7 -175.7,245.7 -175.7,255.6 -189.4,245.7 -233.8,278 -229.9,283.5 
	-189.4,254.1 -148.9,283.5 -144.9,278 "/>
<g>
	<path class="st0" d="M-189.4,263.6L-189.4,263.6L-189.4,263.6L-189.4,263.6l-29.6,21.2v38.4h27.6h2.1h29.6v-38.4L-189.4,263.6z
		 M-189.2,313.6c-8.6,0-15.5-6.9-15.5-15.5s6.9-15.5,15.5-15.5s15.5,6.9,15.5,15.5S-180.7,313.6-189.2,313.6z"/>
</g>
<text transform="matrix(1 0 0 1 -201.1668 314.2469)" class="st1 st2 st3">+</text>
</svg>
