<?xml version="1.0" encoding="utf-8"?>
<!-- Generator: Adobe Illustrator 19.0.0, SVG Export Plug-In . SVG Version: 6.00 Build 0)  -->
<svg version="1.1" id="Layer_1" xmlns="http://www.w3.org/2000/svg" xmlns:xlink="http://www.w3.org/1999/xlink" x="0px" y="0px"
	 viewBox="0 0 191.5 170.3" style="enable-background:new 0 0 191.5 170.3;" xml:space="preserve">
<style type="text/css">
	.st0{fill:#D3D3D3;}
	.st1{fill:#FFFFFF;}
</style>
<g>
	<g>
		<g id="XMLID_78_">
			<path id="XMLID_221_" class="st0" d="M146.9,62.7V0L85.2,41.8v127.9h61.7v-13.3h-12.7V78.1l12.7,6.8V67l-44.1-22.4v-4.3
				L146.9,62.7z M116.6,75.1h3.4v13.3h-3.4V75.1z M116.6,91.3h3.4v13.3h-3.4V91.3z M116.6,111.1h3.4v13.3h-3.4V111.1z M116.6,127.3
				h3.4v13.3h-3.4V127.3z M109.8,75.1h3.4v13.3h-3.4V75.1z M109.8,91.3h3.4v13.3h-3.4 M113.2,124.5h-3.4v-13.3h3.4 M109.8,127.3h3.4
				v13.3h-3.4 M102.9,75.1h3.4v13.3h-3.4V75.1z M102.9,91.3h3.4v13.3h-3.4V91.3z M102.9,111.1h3.4v13.3h-3.4V111.1z M102.9,127.3
				h3.4v13.3h-3.4V127.3z"/>
			<path id="XMLID_70_" class="st0" d="M118.9,51.9v23.2h1.2v13.3h-1.2v2.9h1.2v13.3h-1.2v6.6h1.2v13.3h-1.2v2.9h1.2v13.3h-1.2v29
				h61.7V85L118.9,51.9z M165.2,156.4h-30.9V78.1l30.9,16.6V156.4z"/>
			<path id="XMLID_204_" class="st0" d="M49.5,83.5v86.1h45.1v-61.9L49.5,83.5z M85.4,156.4H65.5V106l19.9,10.7V156.4z"/>
			<path id="XMLID_219_" class="st0" d="M10.2,120.7v49.6h36.2v-69.1L10.2,120.7z M23.5,151.9H20v-13.3h3.4V151.9z M23.5,135.7H20
				v-13.3h3.4V135.7z M30.3,151.9h-3.4v-13.3h3.4V151.9z M30.3,135.7h-3.4v-13.3h3.4V135.7z M37.2,151.9h-3.4v-13.3h3.4V151.9z
				 M37.2,135.7h-3.4v-13.3h3.4V135.7z"/>
		</g>
		<g id="XMLID_76_">
			<line id="XMLID_71_" class="st1" x1="109.8" y1="127.3" x2="113.2" y2="127.3"/>
			<line id="XMLID_69_" class="st1" x1="113.2" y1="140.6" x2="109.8" y2="140.6"/>
		</g>
	</g>
	<rect id="XMLID_75_" y="164.8" class="st0" width="191.5" height="5.5"/>
</g>
</svg>
