<?xml version="1.0" encoding="utf-8"?>
<!-- Generator: Adobe Illustrator 19.0.0, SVG Export Plug-In . SVG Version: 6.00 Build 0)  -->
<svg version="1.1" id="Capa_1" xmlns="http://www.w3.org/2000/svg" xmlns:xlink="http://www.w3.org/1999/xlink" x="0px" y="0px"
	 viewBox="-254 254.9 59 59" style="enable-background:new -254 254.9 59 59;" xml:space="preserve">
<g>
	<path d="M-197.5,254.9h-54c-0.6,0-1,0.4-1,1v10v47c0,0.6,0.4,1,1,1h54c0.6,0,1-0.4,1-1v-47v-10
		C-196.5,255.4-196.9,254.9-197.5,254.9z M-250.5,256.9h52v8h-52V256.9z M-250.5,311.9v-45h52v45H-250.5z"/>
	<path d="M-243.5,257.9h-4c-0.6,0-1,0.4-1,1v4c0,0.6,0.4,1,1,1h4c0.6,0,1-0.4,1-1v-4C-242.5,258.4-242.9,257.9-243.5,257.9z
		 M-244.5,261.9h-2v-2h2V261.9z"/>
	<path d="M-236.5,257.9h-4c-0.6,0-1,0.4-1,1v4c0,0.6,0.4,1,1,1h4c0.6,0,1-0.4,1-1v-4C-235.5,258.4-235.9,257.9-236.5,257.9z
		 M-237.5,261.9h-2v-2h2V261.9z"/>
	<path d="M-200.5,257.9h-24c-0.6,0-1,0.4-1,1v4c0,0.6,0.4,1,1,1h24c0.6,0,1-0.4,1-1v-4C-199.5,258.4-199.9,257.9-200.5,257.9z
		 M-201.5,261.9h-22v-2h22V261.9z"/>
	<path d="M-202.5,271.9h-44c-0.6,0-1,0.4-1,1V293v4.7v10.2c0,0.6,0.4,1,1,1h11.9h4.4h4.6h4.4h4.6h4.4h4.6h4.4h0.7c0.6,0,1-0.4,1-1
		v-35C-201.5,272.4-201.9,271.9-202.5,271.9z M-203.5,273.9v13h-2v-4c0-1.9-1.3-3.4-3-3.9v-2.1h1c0.6,0,1-0.4,1-1c0-0.6-0.4-1-1-1
		h-4c-0.6,0-1,0.4-1,1c0,0.6,0.4,1,1,1h1v2.1c-1.7,0.4-3,2-3,3.9v4h-2v-4c0-1.9-1.3-3.4-3-3.9v-2.1h1c0.6,0,1-0.4,1-1
		c0-0.6-0.4-1-1-1h-4c-0.6,0-1,0.4-1,1c0,0.6,0.4,1,1,1h1v2.1c-1.7,0.4-3,2-3,3.9v4h-2v-4c0-1.9-1.3-3.4-3-3.9v-2.1h1
		c0.6,0,1-0.4,1-1c0-0.6-0.4-1-1-1h-4c-0.6,0-1,0.4-1,1c0,0.6,0.4,1,1,1h1v2.1c-1.7,0.4-3,2-3,3.9v4h-2v-4c0-1.9-1.3-3.4-3-3.9v-2.1
		h1c0.6,0,1-0.4,1-1c0-0.6-0.4-1-1-1h-4c-0.6,0-1,0.4-1,1c0,0.6,0.4,1,1,1h1v2.1c-1.7,0.4-3,2-3,3.9v4h-2v-13H-203.5z M-209.5,280.9
		c1.1,0,2,0.9,2,2v4h-4v-4C-211.5,281.8-210.6,280.9-209.5,280.9z M-219.5,280.9c1.1,0,2,0.9,2,2v4h-4v-4
		C-221.5,281.8-220.6,280.9-219.5,280.9z M-229.5,280.9c1.1,0,2,0.9,2,2v4h-4v-4C-231.5,281.8-230.6,280.9-229.5,280.9z
		 M-239.5,280.9c1.1,0,2,0.9,2,2v4h-4v-4C-241.5,281.8-240.6,280.9-239.5,280.9z M-237.3,293.8c0.1,0.1,0.2,0.1,0.4,0.2
		c0.2,0.1,0.4,0.2,0.5,0.3c0.1,0.1,0.2,0.1,0.3,0.2c0.2,0.1,0.4,0.3,0.7,0.4c0,0,0.1,0.1,0.1,0.1c0.8,0.5,1.4,1.1,2,1.8
		c0.2,0.2,0.4,0.4,0.5,0.7c0,0,0.1,0.1,0.1,0.1c0.2,0.2,0.3,0.5,0.5,0.7c0,0.1,0.1,0.1,0.1,0.2c0.1,0.2,0.3,0.5,0.4,0.7
		c0,0.1,0.1,0.2,0.1,0.2c0.1,0.2,0.2,0.5,0.3,0.7c0,0.1,0.1,0.2,0.1,0.3c0.1,0.2,0.2,0.4,0.2,0.7c0,0.1,0.1,0.3,0.1,0.4
		c0.1,0.2,0.1,0.4,0.1,0.6c0,0,0,0,0,0c0,0.2,0.1,0.4,0.1,0.5c0,0.1,0,0.3,0.1,0.4c0,0,0,0.1,0,0.1c0,0.3,0.1,0.7,0.1,1
		c0,0.4,0,0.9-0.1,1.3c0,0.1,0,0.2,0,0.3c-0.1,0.4-0.2,0.9-0.3,1.3c0,0,0,0.1,0,0.1h-2.1c0.3-1,0.5-2,0.5-3c0-5-4-9-9-9
		c-1.4,0-2.8,0.3-4,0.9v-2.2c1.3-0.5,2.6-0.8,4-0.8C-240,292.9-238.6,293.2-237.3,293.8z M-234.2,293.1
		C-234.3,293.1-234.3,293.1-234.2,293.1c0.5-0.2,1.1-0.2,1.8-0.2c1.5,0,2.9,0.3,4.2,0.8c0.1,0.1,0.2,0.1,0.4,0.2
		c0.2,0.1,0.4,0.2,0.5,0.3c0.1,0.1,0.2,0.1,0.3,0.2c0.2,0.1,0.4,0.3,0.7,0.4c0,0,0.1,0.1,0.1,0.1c0.8,0.5,1.4,1.1,2,1.8
		c0.2,0.2,0.4,0.4,0.5,0.7c0,0,0.1,0.1,0.1,0.1c0.2,0.2,0.3,0.5,0.5,0.7c0,0.1,0.1,0.1,0.1,0.2c0.1,0.2,0.3,0.5,0.4,0.7
		c0,0.1,0.1,0.2,0.1,0.2c0.1,0.2,0.2,0.5,0.3,0.7c0,0.1,0.1,0.2,0.1,0.3c0.1,0.2,0.2,0.4,0.2,0.7c0,0.1,0.1,0.3,0.1,0.4
		c0.1,0.2,0.1,0.4,0.1,0.6c0,0,0,0,0,0c0,0.2,0.1,0.4,0.1,0.5c0,0.1,0,0.3,0.1,0.4c0,0,0,0.1,0,0.1c0,0.3,0.1,0.7,0.1,1
		c0,0.4,0,0.9-0.1,1.3c0,0.1,0,0.2,0,0.3c-0.1,0.4-0.2,0.9-0.3,1.3c0,0,0,0.1,0,0.1h-2.1c0.3-1,0.5-2,0.5-3c0-4.8-3.8-8.8-8.6-9
		c0,0-0.1,0-0.1-0.1c-0.1-0.1-0.3-0.3-0.4-0.4c-0.2-0.2-0.4-0.4-0.6-0.5C-233.5,293.7-233.9,293.4-234.2,293.1z M-225.2,293.1
		C-225.3,293.1-225.3,293.1-225.2,293.1c0.5-0.2,1.1-0.2,1.8-0.2c1.5,0,2.9,0.3,4.2,0.8c0.1,0.1,0.2,0.1,0.4,0.2
		c0.2,0.1,0.4,0.2,0.5,0.3c0.1,0.1,0.2,0.1,0.3,0.2c0.2,0.1,0.4,0.3,0.7,0.4c0,0,0.1,0.1,0.1,0.1c0.8,0.5,1.4,1.1,2,1.8
		c0.2,0.2,0.4,0.4,0.5,0.7c0,0,0.1,0.1,0.1,0.1c0.2,0.2,0.3,0.5,0.5,0.7c0,0.1,0.1,0.1,0.1,0.2c0.1,0.2,0.3,0.5,0.4,0.7
		c0,0.1,0.1,0.2,0.1,0.2c0.1,0.2,0.2,0.5,0.3,0.7c0,0.1,0.1,0.2,0.1,0.3c0.1,0.2,0.2,0.4,0.2,0.7c0,0.1,0.1,0.3,0.1,0.4
		c0.1,0.2,0.1,0.4,0.1,0.6c0,0,0,0,0,0c0,0.2,0.1,0.4,0.1,0.5c0,0.1,0,0.3,0.1,0.4c0,0,0,0.1,0,0.1c0,0.3,0.1,0.7,0.1,1
		c0,0.4,0,0.9-0.1,1.3c0,0.1,0,0.2,0,0.3c-0.1,0.4-0.2,0.9-0.3,1.3c0,0,0,0.1,0,0.1h-2.1c0.3-1,0.5-2,0.5-3c0-4.8-3.8-8.8-8.6-9
		c0,0-0.1,0-0.1-0.1c-0.1-0.1-0.3-0.3-0.4-0.4c-0.2-0.2-0.4-0.4-0.6-0.5C-224.5,293.7-224.9,293.4-225.2,293.1z M-245.5,306.9v-8.7
		c1.2-0.8,2.6-1.3,4-1.3c3.9,0,7,3.1,7,7c0,1-0.2,2.1-0.7,3C-235.2,306.9-245.5,306.9-245.5,306.9z M-228.9,306.9c0-0.1,0-0.1,0-0.2
		c0.1-0.4,0.1-0.7,0.2-1.1c0-0.1,0-0.3,0.1-0.4c0.1-0.4,0.1-0.9,0.1-1.3c0-0.4,0-0.8-0.1-1.2c0-0.1,0-0.2,0-0.3l0,0
		c0-0.1,0-0.1,0-0.2c0-0.2-0.1-0.5-0.1-0.7c0-0.1,0-0.2-0.1-0.4c0-0.1,0-0.1,0-0.2c0-0.1-0.1-0.3-0.1-0.4c0-0.1,0-0.2-0.1-0.2
		c0-0.2-0.1-0.3-0.1-0.5c0-0.1-0.1-0.2-0.1-0.3c-0.1-0.2-0.1-0.3-0.2-0.5c-0.1-0.2-0.1-0.3-0.2-0.5c-0.1-0.2-0.1-0.3-0.2-0.5
		c-0.1-0.2-0.2-0.5-0.4-0.7c0,0,0,0,0-0.1c2.8,0.9,4.8,3.6,4.8,6.7c0,1-0.2,2.1-0.7,3H-228.9z M-219.9,306.9c0-0.1,0-0.1,0-0.2
		c0.1-0.4,0.1-0.7,0.2-1.1c0-0.1,0-0.3,0.1-0.4c0.1-0.4,0.1-0.9,0.1-1.3c0-0.4,0-0.8-0.1-1.2c0-0.1,0-0.2,0-0.3l0,0
		c0-0.1,0-0.1,0-0.2c0-0.2-0.1-0.5-0.1-0.7c0-0.1-0.1-0.2-0.1-0.4c0-0.1,0-0.1,0-0.2c0-0.1-0.1-0.3-0.1-0.4c0-0.1,0-0.2-0.1-0.2
		c0-0.2-0.1-0.3-0.1-0.5c0-0.1-0.1-0.2-0.1-0.3c-0.1-0.2-0.1-0.3-0.2-0.5c-0.1-0.2-0.1-0.3-0.2-0.5c-0.1-0.2-0.1-0.3-0.2-0.5
		c-0.1-0.2-0.2-0.5-0.4-0.7c0,0,0,0,0-0.1c2.8,0.9,4.8,3.6,4.8,6.7c0,1-0.2,2.1-0.7,3H-219.9z M-210.9,306.9c0-0.1,0-0.1,0-0.2
		c0.1-0.4,0.1-0.7,0.2-1.1c0-0.1,0-0.3,0.1-0.4c0.1-0.4,0.1-0.9,0.1-1.3c0-0.4,0-0.8-0.1-1.2c0-0.1,0-0.2,0-0.3l0,0
		c0-0.1,0-0.1,0-0.2c0-0.2-0.1-0.5-0.1-0.7c0-0.1-0.1-0.2-0.1-0.4c0-0.1,0-0.1,0-0.2c0-0.1-0.1-0.3-0.1-0.4c0-0.1,0-0.2-0.1-0.2
		c0-0.2-0.1-0.3-0.1-0.5c0-0.1-0.1-0.2-0.1-0.3c-0.1-0.2-0.1-0.3-0.2-0.5c-0.1-0.2-0.1-0.3-0.2-0.5c-0.1-0.2-0.1-0.3-0.2-0.5
		c-0.1-0.2-0.2-0.5-0.4-0.7c0,0,0,0,0-0.1c2.8,0.9,4.8,3.6,4.8,6.7c0,1-0.2,2.1-0.7,3H-210.9z M-203.9,306.9h-2.1c0.3-1,0.5-2,0.5-3
		c0-4.8-3.8-8.8-8.6-9c0,0-0.1,0-0.1-0.1c-0.1-0.1-0.3-0.3-0.4-0.4c-0.2-0.2-0.4-0.4-0.6-0.5c-0.3-0.3-0.7-0.5-1.1-0.8
		c0,0,0,0-0.1-0.1c0.6-0.1,1.2-0.2,1.8-0.2c6.1,0,11,4.9,11,11C-203.5,304.9-203.6,305.9-203.9,306.9z M-214.5,290.9
		c-1.5,0-3,0.3-4.5,0.8c-1.4-0.5-2.9-0.8-4.5-0.8c-1.5,0-3,0.3-4.5,0.8c-1.4-0.5-2.9-0.8-4.5-0.8c-1.5,0-3,0.3-4.5,0.8
		c-1.4-0.5-2.9-0.8-4.5-0.8c-1.4,0-2.7,0.2-4,0.6v-2.6h3h6h4h6h4h6h4h6h3v8.1C-205.8,293.4-209.9,290.9-214.5,290.9z"/>
</g>
</svg>
