<?xml version="1.0" encoding="utf-8"?>
<!-- Generator: Adobe Illustrator 19.0.0, SVG Export Plug-In . SVG Version: 6.00 Build 0)  -->
<svg version="1.1" id="Capa_1" xmlns="http://www.w3.org/2000/svg" xmlns:xlink="http://www.w3.org/1999/xlink" x="0px" y="0px"
	 viewBox="-38 39.1 489.8 489.8" style="enable-background:new -38 39.1 489.8 489.8;" xml:space="preserve">
<g>
	<g>
		<g>
			<path d="M206.9,39.1C89.1,39.1-6.5,130.8-6.5,244.4s95.6,205.2,213.4,205.2s213.4-91.7,213.4-205.3S324.7,39.1,206.9,39.1z
				 M218.6,60.9c40.4,0,73.1,17.5,73.1,38.9c0,17.1-31.1,21.8-69.2,78.1c-5.1-1.2-33.7-5.5-57.1,12.4
				c-10.5-35.4-19.8-79.3-19.8-90.6C145.5,78,178.1,60.9,218.6,60.9z M243.4,244.3c0,20.2-16.3,36.5-36.5,36.5s-36.5-16.3-36.5-36.5
				s16.3-36.5,36.5-36.5S243.4,224.1,243.4,244.3z M23.4,232.3c0-40.4,17.5-73.1,38.9-73.1c17.1,0,21.8,31.1,78.1,69.2
				c-1.2,5.1-5,33.3,12.4,57.1c-35.4,10.5-79.3,19.8-90.6,19.8C40.9,305.8,23.4,272.7,23.4,232.3z M195.2,427.8
				c-40.4,0-73.1-17.5-73.1-38.9c0-17.1,31.1-21.8,69.2-78.1c23,4.9,45.5-3.5,57.1-12.4c10.5,35.4,19.8,79.3,19.8,90.6
				C268.3,410.3,235.7,427.8,195.2,427.8z M351.5,329.1c-17.1,0-21.8-31.1-78.1-69.2c1.2-5.1,8.5-35.2-12.4-57.1
				c35.4-10.5,79.3-19.8,90.6-19.8c21.4,0,38.9,32.7,38.9,73.1S372.9,329.1,351.5,329.1z"/>
			<path d="M276.9,459.3c-22.2,6.6-45.5,10.5-70,10.5s-47.8-3.5-70-10.5L119,512.6c-2.7,8.2,3.1,16.3,11.7,16.3h152
				c8.6,0,14.4-8.2,11.7-16.3L276.9,459.3z M224,509.1h-34.2c-5.4,0-9.7-4.3-9.7-9.7s4.3-9.7,9.7-9.7H224c5.4,0,9.7,4.3,9.7,9.7
				S229.4,509.1,224,509.1z"/>
		</g>
	</g>
</g>
</svg>
