<?xml version="1.0" encoding="utf-8"?>
<!-- Generator: Adobe Illustrator 19.0.0, SVG Export Plug-In . SVG Version: 6.00 Build 0)  -->
<svg version="1.1" id="Layer_1" xmlns="http://www.w3.org/2000/svg" xmlns:xlink="http://www.w3.org/1999/xlink" x="0px" y="0px"
	 viewBox="0 0 220 140.5" style="enable-background:new 0 0 220 140.5;" xml:space="preserve">
<style type="text/css">
	.st0{fill:#D3D3D3;}
</style>
<g>
	<rect y="134.3" class="st0" width="220" height="6.3"/>
	<g>
		<g>
			<polygon class="st0" points="69.4,88.9 45,45.5 22,87.6 16.7,87.6 42.5,40.1 85.2,40.1 117.9,88.9 			"/>
			<polygon class="st0" points="87.8,16 125.6,16 134,16 134,46.3 145.3,56.6 145.3,16 145.3,0 155.6,0 155.6,16 155.6,16 164.7,16 
				215.9,89.2 135.6,89.2 91.9,24.7 82.4,41.6 74,40.2 			"/>
		</g>
		<g>
			<polygon class="st0" points="32.3,89.3 54.1,89.3 54.2,135.6 52,135.6 51.7,135.6 51.7,91.4 35.5,91.4 49.1,96.1 49.1,130.3 
				32.3,135.6 			"/>
		</g>
		<rect x="91.6" y="98.8" class="st0" width="7.9" height="21.8"/>
		<rect x="78.1" y="98.8" class="st0" width="7.9" height="21.8"/>
		<rect x="167.7" y="98.8" class="st0" width="7.9" height="21.8"/>
		<rect x="154.2" y="98.8" class="st0" width="7.9" height="21.8"/>
		<polygon class="st0" points="133.2,90.5 133.2,135.6 115.3,135.6 115.3,90.5 122.2,90.5 		"/>
		<polygon class="st0" points="194.9,87.5 194.9,135.6 189.5,135.6 189.5,87.5 191.6,87.5 		"/>
		<polygon class="st0" points="22.8,86.4 22.8,135.6 17.4,135.6 17.4,86.4 19.5,86.4 		"/>
	</g>
</g>
</svg>
