<?xml version="1.0" encoding="utf-8"?>
<svg version="1.1" id="Layer_1" xmlns="http://www.w3.org/2000/svg" xmlns:xlink="http://www.w3.org/1999/xlink" x="0px" y="0px"
	 viewBox="-236 237.9 93.3 93" style="enable-background:new -236 237.9 93.3 93;" xml:space="preserve">
<style type="text/css">
	.st0{fill:#F28C40;}
</style>
<polygon class="st0" points="-168.7,260.7 -168.7,245.7 -175.7,245.7 -175.7,255.6 -189.4,245.7 -233.8,278 -229.9,283.5 
	-189.4,254.1 -148.9,283.5 -144.9,278 "/>
<g>
	<path class="st0" d="M-189.4,263.6L-189.4,263.6L-189.4,263.6L-189.4,263.6l-29.6,21.2v38.4h27.6h2.1h29.6v-38.4L-189.4,263.6z
		 M-189.2,313.6c-8.6,0-15.5-6.9-15.5-15.5s6.9-15.5,15.5-15.5s15.5,6.9,15.5,15.5S-180.7,313.6-189.2,313.6z"/>
</g>
<g>
	<path d="M-188.4,309h-1.1v-2.3c-1.5-0.2-2.6-0.5-3.4-1c-1.3-0.9-2-2.4-1.9-4.5h3.1c0.1,1,0.3,1.6,0.5,2c0.3,0.5,0.9,0.9,1.8,1v-4.9
		l-0.9-0.3c-1.5-0.4-2.5-1-3.1-1.8s-0.9-1.7-0.9-2.8c0-0.7,0.1-1.4,0.4-2c0.2-0.6,0.6-1.1,1-1.5c0.5-0.5,1.2-0.9,1.8-1.1
		c0.4-0.1,1-0.2,1.8-0.3V288h1.1v1.6c1.2,0.1,2.2,0.4,2.9,0.9c1.3,0.8,2,2.2,2,4h-3c-0.1-0.7-0.2-1.2-0.3-1.5
		c-0.3-0.5-0.8-0.8-1.6-0.9v4.4c1.8,0.6,3.1,1.2,3.7,1.7c1,0.8,1.6,1.9,1.6,3.4c0,1.9-0.7,3.3-2.1,4.2c-0.9,0.5-1.9,0.9-3.1,0.9v2.3
		H-188.4L-188.4,309z M-189.5,292c-0.7,0-1.2,0.2-1.5,0.5s-0.5,0.8-0.5,1.4s0.2,1.2,0.7,1.5c0.3,0.2,0.7,0.4,1.2,0.6v-4H-189.5z
		 M-188.4,304.1c0.6-0.1,1-0.2,1.3-0.4c0.5-0.4,0.7-1,0.7-1.8c0-0.7-0.2-1.2-0.7-1.6c-0.3-0.2-0.7-0.5-1.4-0.7L-188.4,304.1
		L-188.4,304.1z"/>
</g>
</svg>
