<?xml version="1.0" encoding="utf-8"?>
<svg version="1.1" id="Layer_1" xmlns="http://www.w3.org/2000/svg" xmlns:xlink="http://www.w3.org/1999/xlink" x="0px" y="0px"
	 viewBox="-197 209.4 173 225.9" style="enable-background:new -197 209.4 173 225.9;" xml:space="preserve">
<style type="text/css">
	.st0{fill:#E0E0E0;}
	.st1{fill:#725341;}
</style>
<g id="XMLID_99_">
	<g>
		<polygon class="st0" points="-24,234.6 -34.6,218.2 -188.9,218.2 -197,231.8 -197,303.1 -188.9,316.8 -34.6,316.8 -24,300.3 		"/>
		<rect id="XMLID_86_" x="-118.4" y="209.4" class="st0" width="15.7" height="225.9"/>
	</g>
	<g id="XMLID_66_">
		<path id="XMLID_67_" class="st1" d="M-135.5,235h10.7v3.1h-7.2v4.5h6.6v3.1h-6.6v7.3h-3.5V235z"/>
		<path id="XMLID_69_" class="st1" d="M-123,244c0-3,0.7-5.3,2-6.9c1.3-1.6,3.2-2.4,5.7-2.4c1.3,0,2.4,0.2,3.4,0.7
			c1,0.4,1.8,1.1,2.4,1.9s1.1,1.8,1.4,3s0.5,2.4,0.5,3.8c0,3-0.7,5.3-2,6.9c-1.4,1.6-3.3,2.4-5.7,2.4c-1.3,0-2.4-0.2-3.4-0.7
			c-1-0.4-1.8-1.1-2.4-1.9s-1.1-1.8-1.4-3C-122.8,246.7-123,245.5-123,244z M-119.3,244c0,0.9,0.1,1.7,0.2,2.5
			c0.2,0.8,0.4,1.4,0.7,2c0.3,0.6,0.7,1,1.2,1.3s1.1,0.5,1.8,0.5c1.3,0,2.2-0.5,2.9-1.5c0.7-1,1-2.6,1-4.8c0-0.9-0.1-1.7-0.2-2.4
			c-0.1-0.8-0.4-1.4-0.7-2c-0.3-0.6-0.7-1-1.2-1.3s-1.1-0.5-1.8-0.5c-1.3,0-2.2,0.5-2.9,1.5C-118.9,240.3-119.3,241.9-119.3,244z"/>
		<path id="XMLID_72_" class="st1" d="M-105.2,235.2c0.4-0.1,0.8-0.1,1.3-0.2s0.9-0.1,1.4-0.1s0.9-0.1,1.3-0.1s0.8,0,1.2,0
			c0.8,0,1.7,0.1,2.5,0.2c0.8,0.2,1.5,0.4,2.2,0.8c0.6,0.4,1.2,0.9,1.5,1.6c0.3,0.7,0.6,1.5,0.6,2.5c0,1.5-0.3,2.7-1,3.6
			c-0.7,0.9-1.6,1.6-2.8,1.9l1.3,0.8l4.1,6.9h-4.1l-4.1-7.1l-1.9-0.3v7.4h-3.5V235.2z M-99.8,237.9c-0.4,0-0.7,0-1.1,0
			s-0.6,0.1-0.8,0.1v5.2h1.5c1,0,1.8-0.2,2.3-0.7s0.9-1.2,0.9-2.2c0-0.8-0.2-1.4-0.7-1.8C-98.1,238.1-98.8,237.9-99.8,237.9z"/>
	</g>
</g>
<g id="XMLID_75_">
	<path id="XMLID_76_" class="st1" d="M-172.3,256.5c0.8-0.1,1.7-0.3,2.7-0.4s1.9-0.2,2.9-0.3s1.9-0.1,2.8-0.2c0.9,0,1.7-0.1,2.5-0.1
		c1.8,0,3.5,0.2,5.3,0.5c1.7,0.3,3.3,0.9,4.6,1.7c1.4,0.8,2.5,1.9,3.3,3.3s1.2,3.2,1.2,5.3c0,3.1-0.7,5.7-2.2,7.6
		c-1.5,2-3.4,3.3-5.8,4.1l2.7,1.7l8.7,14.6h-8.6l-8.7-14.9l-3.9-0.7v15.7h-7.5C-172.3,294.4-172.3,256.5-172.3,256.5z M-160.8,262.3
		c-0.8,0-1.5,0-2.3,0.1c-0.7,0-1.3,0.1-1.7,0.2v11.1h3.2c2.1,0,3.7-0.5,5-1.4c1.2-0.9,1.9-2.5,1.9-4.7c0-1.6-0.5-2.9-1.5-3.8
		C-157.4,262.7-158.9,262.3-160.8,262.3z"/>
	<path id="XMLID_79_" class="st1" d="M-139.5,256.1h22.6v6.7H-132v8.9h13.8v6.7H-132v9.3h15.4v6.7h-22.9V256.1z"/>
	<path id="XMLID_81_" class="st1" d="M-101.5,274.4l-3-6h-0.3l0.9,6v19.9h-7.1v-38.4h5.5l14.5,20.3l2.9,5.8h0.3l-0.9-5.8v-20.1h7.1
		v38.5h-5.5L-101.5,274.4z"/>
	<path id="XMLID_83_" class="st1" d="M-48,262.8h-11.1v31.5h-7.5v-31.5h-11.2v-6.7H-48V262.8z"/>
</g>
</svg>
