<?xml version="1.0" encoding="utf-8"?>
<svg version="1.1" id="Layer_1" xmlns="http://www.w3.org/2000/svg" xmlns:xlink="http://www.w3.org/1999/xlink" x="0px" y="0px"
	 viewBox="-197 209.4 173 226.9" style="enable-background:new -197 209.4 173 226.9;" xml:space="preserve">
<style type="text/css">
	.st0{fill:#E0E0E0;}
	.st1{fill:#725341;}
</style>
<g>
	<g>
		<polygon class="st0" points="-24,234.6 -34.6,218.2 -188.9,218.2 -197,231.8 -197,303.1 -188.9,316.8 -34.6,316.8 -24,300.3 		"/>
		<rect id="XMLID_86_" x="-118.4" y="209.4" class="st0" width="15.7" height="226.9"/>
	</g>
	<g id="XMLID_75_">
		<path id="XMLID_76_" class="st1" d="M-151.3,284.5c0-1.2-0.4-2.1-1.3-2.8c-0.9-0.7-1.9-1.4-3.2-2s-2.7-1.2-4.2-1.9
			c-1.5-0.6-2.9-1.4-4.2-2.3s-2.4-2.1-3.2-3.5c-0.9-1.4-1.3-3.1-1.3-5.3c0-1.9,0.3-3.5,0.9-4.8c0.6-1.4,1.5-2.5,2.6-3.4
			s2.5-1.6,4.1-2s3.3-0.7,5.2-0.7c2.2,0,4.3,0.2,6.3,0.6s3.6,0.9,4.9,1.7l-2.3,6.3c-0.8-0.5-2-1-3.6-1.4s-3.3-0.6-5.2-0.6
			c-1.7,0-3.1,0.3-4,1s-1.4,1.6-1.4,2.8c0,1.1,0.4,2,1.3,2.7c0.9,0.7,1.9,1.4,3.2,2s2.7,1.3,4.2,1.9c1.5,0.7,2.9,1.4,4.2,2.4
			c1.3,0.9,2.4,2.1,3.2,3.4c0.9,1.4,1.3,3.1,1.3,5.1s-0.3,3.8-1,5.3s-1.6,2.7-2.8,3.7s-2.7,1.7-4.4,2.2s-3.6,0.7-5.7,0.7
			c-2.7,0-5.1-0.3-7.2-0.8c-2.1-0.5-3.6-1-4.6-1.5l2.4-6.4c0.4,0.2,0.9,0.5,1.6,0.7c0.6,0.3,1.4,0.5,2.2,0.7s1.6,0.4,2.5,0.5
			s1.8,0.2,2.8,0.2c2.2,0,3.9-0.4,5.1-1.1C-151.9,287.1-151.3,286-151.3,284.5z"/>
		<path id="XMLID_78_" class="st1" d="M-120.1,286.3h-11.7l-2.9,8.5h-7.5l13.7-38.5h5.5l13.7,38.5h-7.7L-120.1,286.3z M-129.9,280.3
			h8.2l-2.8-8.5l-1.1-6h-0.4l-1.1,6.1L-129.9,280.3z"/>
		<path id="XMLID_81_" class="st1" d="M-81.7,294.7h-24.2v-38.2h7.5V288h16.7V294.7z"/>
		<path id="XMLID_83_" class="st1" d="M-77.9,256.5h22.6v6.7h-15.2v8.9h13.8v6.7h-13.8v9.3H-55v6.7h-22.9V256.5z"/>
	</g>
	<g id="XMLID_66_">
		<path id="XMLID_67_" class="st1" d="M-135.5,235h10.7v3.1h-7.2v4.5h6.6v3.1h-6.6v7.3h-3.5V235z"/>
		<path id="XMLID_69_" class="st1" d="M-123,244c0-3,0.7-5.3,2-6.9c1.3-1.6,3.2-2.4,5.7-2.4c1.3,0,2.4,0.2,3.4,0.7
			c1,0.4,1.8,1.1,2.4,1.9s1.1,1.8,1.4,3s0.5,2.4,0.5,3.8c0,3-0.7,5.3-2,6.9c-1.4,1.6-3.3,2.4-5.7,2.4c-1.3,0-2.4-0.2-3.4-0.7
			c-1-0.4-1.8-1.1-2.4-1.9s-1.1-1.8-1.4-3C-122.8,246.7-123,245.5-123,244z M-119.3,244c0,0.9,0.1,1.7,0.2,2.5
			c0.2,0.8,0.4,1.4,0.7,2c0.3,0.6,0.7,1,1.2,1.3s1.1,0.5,1.8,0.5c1.3,0,2.2-0.5,2.9-1.5c0.7-1,1-2.6,1-4.8c0-0.9-0.1-1.7-0.2-2.4
			c-0.1-0.8-0.4-1.4-0.7-2c-0.3-0.6-0.7-1-1.2-1.3s-1.1-0.5-1.8-0.5c-1.3,0-2.2,0.5-2.9,1.5C-118.9,240.3-119.3,241.9-119.3,244z"/>
		<path id="XMLID_72_" class="st1" d="M-105.2,235.2c0.4-0.1,0.8-0.1,1.3-0.2s0.9-0.1,1.4-0.1s0.9-0.1,1.3-0.1s0.8,0,1.2,0
			c0.8,0,1.7,0.1,2.5,0.2c0.8,0.2,1.5,0.4,2.2,0.8c0.6,0.4,1.2,0.9,1.5,1.6c0.3,0.7,0.6,1.5,0.6,2.5c0,1.5-0.3,2.7-1,3.6
			c-0.7,0.9-1.6,1.6-2.8,1.9l1.3,0.8l4.1,6.9h-4.1l-4.1-7.1l-1.9-0.3v7.4h-3.5V235.2z M-99.8,237.9c-0.4,0-0.7,0-1.1,0
			s-0.6,0.1-0.8,0.1v5.2h1.5c1,0,1.8-0.2,2.3-0.7s0.9-1.2,0.9-2.2c0-0.8-0.2-1.4-0.7-1.8C-98.1,238.1-98.8,237.9-99.8,237.9z"/>
	</g>
</g>
</svg>
